:SAMPLES-PER-SECOND 30
:FULLY-SPECIFIED
:DEGREES
441
root  -32.5694 34.5552 -7.83125 38.9902 86.6323 32.0933
RightUpLeg  -15.1166 -29.0086 -9.08958
RightLeg  12.9979 -0.982414 -0.160551
RightFoot  12.0352 0.0611537 -0.0404481
RightToes  -33.1502 -0.166204 -0.273253
Spine  -1.21058 1.85361 -1.38562
Spine1  -2.44044 3.8305 -2.07901
HEad  -48.2767 14.2892 -5.66697
LeftShoulder1  -1.94126e-019 -3.10601e-018 -2.51263e-017
LeftArm  19.7506 24.5796 -66.1447
LeftForeArm  133.894 -73.1082 -142.231
LeftHand  0.0410437 1.56284 -1.52964
RightShoulder  -4.96962e-017 0 -2.36833e-017
RightArm  23.6453 -21.5493 68.5383
RightForeArm  133.312 80.735 106.776
RightHand  0.057636 2.02186 0.683588
LeftUpLeg  -9.65741 10.89 -7.84641
LeftLeg  12.7335 22.2684 3.45303
LeftFoot  -2.44249 -0.0213705 -0.840869
LeftToes  -4.59151 1.49739e-006 1.00523e-007
442
root  -32.5676 34.545 -7.74739 42.4259 86.6273 35.5923
RightUpLeg  -15.608 -26.6319 -9.91477
RightLeg  15.0258 0.851978 0.170861
RightFoot  11.2167 0.0198731 0.326843
RightToes  -33.4222 -0.168183 -0.275034
Spine  -1.2138 1.85514 -1.46303
Spine1  -2.45538 3.83034 -2.23317
HEad  -48.2712 14.1629 -6.1011
LeftShoulder1  -1.94126e-019 -3.10601e-018 -2.51263e-017
LeftArm  19.2919 25.1488 -66.1249
LeftForeArm  133.009 -73.1672 -141.948
LeftHand  0.0259812 1.95432 -1.26366
RightShoulder  -4.96962e-017 0 -2.36833e-017
RightArm  23.4328 -21.4153 68.7368
RightForeArm  133.415 80.7597 106.561
RightHand  0.057949 1.95103 0.706492
LeftUpLeg  -9.54944 10.9933 -7.8524
LeftLeg  12.6445 22.0338 3.38445
LeftFoot  -2.32181 -0.0190684 -0.779391
LeftToes  -5.04882 1.49739e-006 1.00523e-007
443
root  -32.5792 34.54 -7.65358 45.7666 86.6022 38.927
RightUpLeg  -16.5201 -24.6675 -10.7894
RightLeg  17.6097 3.78661 0.937406
RightFoot  10.9391 -0.0354364 0.882748
RightToes  -35.148 -0.18093 -0.286106
Spine  -1.21515 1.91756 -1.51658
Spine1  -2.46587 3.95157 -2.34036
HEad  -48.1965 13.8405 -6.48188
LeftShoulder1  -1.94126e-019 -3.10601e-018 -2.51263e-017
LeftArm  18.7912 25.7368 -66.321
LeftForeArm  132.276 -73.3554 -141.381
LeftHand  0.0173533 2.18748 -1.08598
RightShoulder  -4.96962e-017 0 -2.36833e-017
RightArm  23.0364 -21.3512 68.9031
RightForeArm  133.34 80.8053 106.023
RightHand  0.05849 1.77639 0.79265
LeftUpLeg  -9.5255 11.1721 -7.86631
LeftLeg  12.5042 21.7987 3.29699
LeftFoot  -2.13816 -0.0159575 -0.693532
LeftToes  -5.62395 1.49739e-006 1.00523e-007
444
root  -32.6005 34.5447 -7.52251 47.8609 86.6282 40.8971
RightUpLeg  -17.6008 -23.0384 -11.4959
RightLeg  20.1492 7.20507 2.1218
RightFoot  10.9396 -0.101633 1.55429
RightToes  -36.9872 -0.194874 -0.297478
Spine  -1.2379 1.98465 -1.52216
Spine1  -2.51574 4.08221 -2.35152
HEad  -48.1928 13.6405 -6.7627
LeftShoulder1  -1.94126e-019 -3.10601e-018 -2.51263e-017
LeftArm  18.2746 26.4027 -66.6027
LeftForeArm  131.687 -73.6503 -140.559
LeftHand  0.0136866 2.32211 -0.852129
RightShoulder  -4.96962e-017 0 -2.36833e-017
RightArm  22.6535 -21.317 69.0808
RightForeArm  132.629 80.8586 105.056
RightHand  0.0567622 1.64442 0.791007
LeftUpLeg  -9.663 11.7505 -7.73887
LeftLeg  12.4119 21.1172 3.16494
LeftFoot  -1.89095 -0.0120234 -0.56698
LeftToes  -6.31692 1.49739e-006 1.00523e-007
445
root  -32.6362 34.5558 -7.34867 50.3364 86.8745 43.0656
RightUpLeg  -18.5068 -21.2522 -12.0289
RightLeg  21.9175 10.5992 3.46692
RightFoot  11.0834 -0.174243 2.2686
RightToes  -37.9925 -0.202648 -0.303503
Spine  -1.28994 2.02453 -1.44181
Spine1  -2.61691 4.1561 -2.18892
HEad  -48.37 13.4681 -7.08412
LeftShoulder1  -1.94126e-019 -3.10601e-018 -2.51263e-017
LeftArm  17.6869 27.1682 -66.9843
LeftForeArm  131.159 -73.9066 -139.817
LeftHand  0.0120138 2.5235 -1.16076
RightShoulder  -4.96962e-017 0 -2.36833e-017
RightArm  22.3285 -21.3364 69.0987
RightForeArm  132.378 80.8647 104.85
RightHand  0.0436155 1.51617 0.596037
LeftUpLeg  -10.1029 12.0825 -7.43737
LeftLeg  12.5176 20.4919 3.1132
LeftFoot  -1.6438 -0.00877465 -0.450086
LeftToes  -7.16298 1.49739e-006 1.00523e-007
